<svg width="24" height="24" viewBox="0 0 24 24" fill="none" xmlns="http://www.w3.org/2000/svg">
<path d="M6.60609 4.10819L11.1704 8.67248L11.1733 8.67176L15.3282 12.8267L15.3275 12.8296L20.3204 17.8225C20.6551 18.1572 20.6551 18.6999 20.3204 19.0347C19.9856 19.3694 19.4429 19.3694 19.1082 19.0347L17.5008 17.4287C15.8406 18.3424 13.9549 18.8571 12 18.8571C7.01294 18.8571 2.14286 15.1234 2.14286 12C2.14286 10.1769 4.0159 7.91199 6.59414 6.52067L5.39391 5.32037C5.05918 4.98564 5.05918 4.44293 5.39391 4.10819C5.72865 3.77346 6.27136 3.77346 6.60609 4.10819ZM3.85715 12C3.85715 14.0623 7.87526 17.1429 12 17.1429C13.485 17.1429 14.9274 16.7911 16.2291 16.1575L14.4609 14.3873C13.8377 15.0295 12.9655 15.4286 12 15.4286C10.1065 15.4286 8.57143 13.8935 8.57143 12C8.57143 11.0345 8.9705 10.1623 9.61268 9.53914L7.86847 7.79632C5.55458 8.8946 3.85715 10.8291 3.85715 12ZM12 5.14285C16.9871 5.14285 21.8571 8.87658 21.8571 12C21.8571 12.8097 21.4858 13.7128 20.8315 14.6C20.5505 14.981 20.0139 15.0621 19.6329 14.7811C19.2519 14.5001 19.1708 13.9635 19.4518 13.5825C19.9073 12.9648 20.1429 12.3921 20.1429 12C20.1429 9.9377 16.1247 6.85714 12 6.85714C11.5266 6.85714 11.1429 6.47338 11.1429 6C11.1429 5.52661 11.5266 5.14285 12 5.14285ZM10.8251 10.7516C10.4931 11.0642 10.2857 11.5079 10.2857 12C10.2857 12.9468 11.0532 13.7143 12 13.7143C12.4921 13.7143 12.9358 13.5069 13.2484 13.1749L10.8251 10.7516Z" fill="#8E8E8E"/>
</svg>
