<svg width="24" height="24" viewBox="0 0 24 24" fill="none" xmlns="http://www.w3.org/2000/svg">
<path fill-rule="evenodd" clip-rule="evenodd" d="M12.9 5.00001C12.9 4.50295 12.497 4.10001 12 4.10001C11.5029 4.10001 11.1 4.50295 11.1 5.00001V11.1H4.99998C4.50292 11.1 4.09998 11.5029 4.09998 12C4.09998 12.4971 4.50292 12.9 4.99998 12.9H11.1V19C11.1 19.4971 11.5029 19.9 12 19.9C12.497 19.9 12.9 19.4971 12.9 19V12.9H19C19.497 12.9 19.9 12.4971 19.9 12C19.9 11.503 19.497 11.1 19 11.1H12.9V5.00001Z" fill="#299E37"/>
</svg>
